<svg xmlns="http://www.w3.org/2000/svg" width="32" height="32" viewBox="0 0 32 32">
  <!-- Exact Tailwind gradient: from-purple-500 to-pink-600 -->
  <defs>
    <linearGradient id="bgGradient" x1="0%" y1="0%" x2="100%" y2="0%">
      <stop offset="0%" style="stop-color:#8b5cf6;stop-opacity:1" />
      <stop offset="100%" style="stop-color:#db2777;stop-opacity:1" />
    </linearGradient>
  </defs>
  
  <!-- Rounded rectangle background (rounded-2xl = 16px on 80px = 20% = 6.4px on 32px) -->
  <rect width="32" height="32" rx="6.4" ry="6.4" fill="url(#bgGradient)"/>
  
  <!-- BookOpen icon: w-10 h-10 in w-20 h-20 = 50% scale, centered -->
  <g transform="translate(8, 8) scale(0.67)">
    <path d="M12 7v14" stroke="white" stroke-width="2" stroke-linecap="round" stroke-linejoin="round" fill="none"/>
    <path d="M3 18a1 1 0 0 1-1-1V4a1 1 0 0 1 1-1h5a4 4 0 0 1 4 4 4 4 0 0 1 4-4h5a1 1 0 0 1 1 1v13a1 1 0 0 1-1 1h-6a3 3 0 0 0-3 3 3 3 0 0 0-3-3z" stroke="white" stroke-width="2" stroke-linecap="round" stroke-linejoin="round" fill="none"/>
  </g>
</svg>